<?xml version="1.0" standalone="no"?>
<!DOCTYPE svg PUBLIC "-//W3C//DTD SVG 20010904//EN"
 "http://www.w3.org/TR/2001/REC-SVG-20010904/DTD/svg10.dtd">
<svg version="1.0" xmlns="http://www.w3.org/2000/svg"
 width="1105.000000pt" height="804.000000pt" viewBox="0 0 1105.000000 804.000000"
 preserveAspectRatio="xMidYMid meet">

<g transform="translate(0.000000,804.000000) scale(0.100000,-0.100000)"
fill="#000000" stroke="none">
<path d="M4320 6181 c-674 -579 -685 -588 -691 -559 -4 16 -19 129 -35 251
l-28 221 -80 101 c-118 149 -135 166 -165 158 -14 -3 -29 -8 -33 -12 -4 -3 56
-482 132 -1064 l139 -1058 -80 -337 c-44 -185 -82 -345 -85 -354 -3 -12 -15
-18 -33 -18 -18 0 -39 -13 -66 -40 l-39 -40 -109 0 c-108 0 -109 0 -137 -30
-57 -61 -55 -18 -55 -1350 l0 -1225 45 0 45 0 5 1135 c4 899 8 1140 18 1158
l13 22 848 0 c799 0 849 -1 857 -17 5 -10 11 -531 14 -1158 l5 -1140 58 -3 57
-3 -1 668 c-1 367 -4 922 -8 1233 -7 556 -7 566 -30 622 -28 73 -50 88 -123
88 l-58 0 0 -31 c0 -17 -5 -39 -10 -50 -10 -18 -26 -19 -415 -19 -465 0 -425
-10 -425 103 l0 64 -77 7 c-42 3 -120 6 -175 6 -54 0 -98 4 -98 9 0 14 90 404
94 408 2 2 9 -42 16 -99 7 -57 16 -113 21 -125 11 -29 54 -31 68 -4 16 28 121
322 121 336 0 7 -21 30 -47 51 -61 49 -64 54 -57 84 8 35 37 62 68 63 25 2 27
5 22 32 -3 17 -23 170 -45 340 -23 171 -43 322 -46 337 l-4 28 607 3 607 2
-607 3 c-335 1 -608 5 -608 8 0 3 -16 125 -35 272 -20 146 -35 278 -33 293 2
21 135 140 691 614 378 323 687 592 687 596 0 5 -3 9 -7 8 -5 0 -316 -265
-693 -588z m-826 -81 l66 -95 27 -213 27 -212 -49 -43 c-28 -25 -44 -46 -38
-50 5 -3 29 10 52 29 22 20 41 33 41 29 0 -3 16 -126 35 -272 19 -147 35 -270
35 -275 0 -4 -20 -8 -45 -8 -60 0 -58 -18 3 -22 l47 -3 38 -283 37 -282 -54
-108 c-32 -62 -56 -101 -59 -92 -5 15 -268 2017 -267 2035 1 13 24 -17 104
-135z"/>
<path d="M8375 5524 c-6 -1 -26 -5 -46 -8 -53 -9 -126 -77 -160 -151 -16 -33
-29 -66 -29 -74 0 -9 -6 -11 -17 -6 -47 19 -93 17 -129 -5 -35 -20 -42 -21
-103 -9 -36 6 -82 19 -101 29 -64 31 -166 53 -216 46 -99 -13 -187 -74 -229
-157 l-24 -47 29 -23 30 -24 -20 -55 c-49 -140 0 -293 121 -375 24 -17 49 -35
54 -42 20 -23 197 -67 270 -67 122 0 238 71 290 178 28 57 49 202 39 266 -5
29 -1 39 20 59 14 13 31 40 37 59 l11 34 62 -4 c156 -10 221 -160 163 -378
-21 -79 -24 -85 -47 -83 -168 16 -174 16 -227 -7 -59 -25 -124 -90 -148 -147
-49 -115 8 -278 115 -333 l37 -19 -11 -57 c-10 -52 -15 -58 -44 -68 -47 -16
-102 -63 -118 -101 -7 -18 -47 -214 -89 -436 -94 -507 -82 -455 -104 -435 -10
9 -33 16 -53 16 -32 0 -40 -7 -96 -79 -34 -44 -62 -82 -62 -85 0 -3 39 -7 86
-8 l86 -3 48 -157 c26 -87 45 -158 42 -158 -2 0 -65 32 -138 70 l-133 71 -3
86 -3 85 -199 -255 c-116 -150 -204 -254 -210 -250 -23 14 -142 111 -154 126
-12 14 5 53 122 280 75 145 136 267 136 271 0 3 -62 6 -137 6 -171 -1 -174 -2
-184 -101 -5 -39 -9 -73 -11 -74 -2 -2 -160 17 -352 42 -223 29 -364 43 -391
39 -95 -15 -185 -103 -205 -202 -7 -30 -45 -135 -86 -232 -122 -287 -180 -478
-199 -657 -4 -33 -29 -132 -56 -220 -26 -88 -47 -167 -46 -175 1 -8 -16 -72
-38 -142 -29 -94 -44 -128 -56 -128 -10 0 -23 -17 -33 -43 l-16 -43 -128 -28
c-165 -35 -157 -33 -170 -61 -23 -50 -5 -67 144 -128 l138 -57 39 38 38 37 -6
-51 -7 -50 43 -17 c23 -9 44 -16 45 -14 1 1 25 74 53 162 43 135 48 161 36
168 -8 4 -15 13 -15 18 0 6 32 80 72 165 70 152 72 154 103 154 30 0 38 8 111
119 l80 120 112 -225 112 -224 34 0 c27 0 35 -5 44 -27 6 -16 10 -35 10 -43 0
-8 7 -31 15 -51 l16 -36 -74 -114 c-45 -69 -75 -125 -75 -141 0 -30 23 -58 48
-58 9 -1 77 23 149 52 l133 53 0 48 c0 26 4 47 9 47 5 0 19 -15 31 -34 l21
-35 37 16 c20 8 41 18 45 22 4 5 -26 74 -68 154 -42 81 -72 147 -67 147 6 0
-24 86 -65 192 -69 175 -75 194 -64 223 6 17 11 59 11 92 0 33 7 80 15 103 21
60 18 133 -9 220 -13 41 -26 108 -30 148 -6 67 -5 73 11 68 10 -2 68 -14 129
-26 l111 -22 74 21 c73 20 152 27 182 15 12 -4 13 -11 5 -34 -21 -60 36 -140
100 -140 20 0 21 -6 24 -97 l3 -98 165 -7 c90 -4 169 -9 176 -10 8 -2 -42
-189 -147 -553 -87 -302 -159 -553 -159 -557 0 -12 108 -10 115 2 3 5 79 255
168 555 90 300 167 546 172 547 6 0 84 -249 175 -553 l165 -554 58 -3 c31 -2
57 1 57 6 0 5 -71 257 -159 560 l-158 552 201 0 202 0 2 27 c1 15 72 442 157
949 85 507 155 936 155 953 0 46 -25 99 -64 135 l-34 31 36 193 36 192 22 -42
c30 -58 66 -90 149 -131 244 -122 532 -124 781 -8 105 50 162 89 248 170 111
107 189 229 235 370 12 36 21 66 21 69 0 2 -17 -11 -37 -28 -80 -71 -203 -97
-408 -85 -235 13 -398 58 -531 147 -150 100 -231 226 -263 409 -11 59 -26 120
-35 136 -19 37 -69 81 -99 87 -42 9 -73 12 -82 10z"/>
<path d="M5660 4645 c0 -99 1 -105 21 -105 11 0 28 4 38 10 13 7 27 2 56 -17
l38 -26 49 51 c26 28 48 54 48 59 0 4 -24 21 -54 36 -29 15 -77 44 -107 62
-86 56 -89 53 -89 -70z"/>
<path d="M4231 3623 c-33 -41 -7 -93 45 -93 52 0 75 74 32 104 -32 23 -54 20
-77 -11z"/>
</g>
</svg>
